<svg width="1600" height="900" viewBox="0 0 1600 900" fill="none" xmlns="http://www.w3.org/2000/svg">
  <rect width="1600" height="900" fill="#0B0D0F"/>
  <rect x="96" y="96" width="1408" height="708" rx="32" fill="#121518" stroke="#2A3138" stroke-width="2"/>
  <rect x="160" y="160" width="540" height="250" rx="20" fill="#171D22" stroke="#2A3138"/>
  <rect x="730" y="160" width="710" height="250" rx="20" fill="#171D22" stroke="#2A3138"/>
  <rect x="160" y="440" width="390" height="290" rx="20" fill="#171D22" stroke="#2A3138"/>
  <rect x="580" y="440" width="390" height="290" rx="20" fill="#171D22" stroke="#2A3138"/>
  <rect x="1000" y="440" width="440" height="290" rx="20" fill="#171D22" stroke="#2A3138"/>
  <rect x="190" y="196" width="180" height="14" rx="7" fill="#2F3841"/>
  <rect x="760" y="196" width="180" height="14" rx="7" fill="#2F3841"/>
  <rect x="190" y="228" width="280" height="10" rx="5" fill="#273039"/>
  <rect x="760" y="228" width="500" height="10" rx="5" fill="#273039"/>
  <rect x="190" y="256" width="220" height="10" rx="5" fill="#273039"/>
  <rect x="760" y="256" width="430" height="10" rx="5" fill="#273039"/>
  <circle cx="425" cy="650" r="70" fill="#A3E635" fill-opacity="0.18"/>
  <circle cx="845" cy="650" r="70" fill="#A3E635" fill-opacity="0.18"/>
  <circle cx="1220" cy="650" r="70" fill="#A3E635" fill-opacity="0.18"/>
</svg>
