<svg width="1600" height="900" viewBox="0 0 1600 900" fill="none" xmlns="http://www.w3.org/2000/svg">
  <rect width="1600" height="900" fill="#0C0E10"/>
  <rect x="120" y="110" width="1360" height="680" rx="28" fill="#121518" stroke="#2A3138" stroke-width="2"/>
  <rect x="180" y="170" width="1240" height="120" rx="18" fill="#171D22" stroke="#2A3138"/>
  <rect x="180" y="320" width="590" height="410" rx="18" fill="#171D22" stroke="#2A3138"/>
  <rect x="800" y="320" width="620" height="190" rx="18" fill="#171D22" stroke="#2A3138"/>
  <rect x="800" y="540" width="620" height="190" rx="18" fill="#171D22" stroke="#2A3138"/>
  <rect x="220" y="205" width="220" height="14" rx="7" fill="#2F3841"/>
  <rect x="220" y="236" width="460" height="10" rx="5" fill="#273039"/>
  <rect x="220" y="267" width="340" height="10" rx="5" fill="#273039"/>
  <rect x="220" y="370" width="320" height="12" rx="6" fill="#2F3841"/>
  <rect x="220" y="400" width="500" height="10" rx="5" fill="#273039"/>
  <rect x="220" y="430" width="510" height="10" rx="5" fill="#273039"/>
  <rect x="220" y="460" width="420" height="10" rx="5" fill="#273039"/>
  <circle cx="1360" cy="190" r="18" fill="#A3E635"/>
</svg>
